<svg width="35" height="36" viewBox="0 0 35 36" fill="none" xmlns="http://www.w3.org/2000/svg">
<path fill-rule="evenodd" clip-rule="evenodd" d="M14.59 3.61002C8.04751 3.61002 2.74381 8.91372 2.74381 15.4562C2.74381 21.9986 8.04751 27.3023 14.59 27.3023C17.8615 27.3023 20.8213 25.9778 22.9665 23.8327C25.1116 21.6875 26.4361 18.7278 26.4361 15.4562C26.4361 8.91372 21.1324 3.61002 14.59 3.61002ZM0.111328 15.4562C0.111328 7.45984 6.59363 0.977539 14.59 0.977539C22.5863 0.977539 29.0686 7.45984 29.0686 15.4562C29.0686 18.9799 27.8085 22.2112 25.7164 24.7212L33.948 32.9528C34.4621 33.4668 34.4621 34.3002 33.948 34.8142C33.434 35.3283 32.6006 35.3283 32.0866 34.8142L23.855 26.5827C21.345 28.6747 18.1137 29.9348 14.59 29.9348C6.59363 29.9348 0.111328 23.4525 0.111328 15.4562Z" fill="white"/>
</svg>
